<svg width="30" height="30" viewBox="0 0 30 30" fill="none" xmlns="http://www.w3.org/2000/svg">
<path d="M1.54268 30C1.1475 30 0.752317 29.8497 0.452068 29.5472C-0.150689 28.9444 -0.150689 27.9672 0.452068 27.3645L27.3652 0.452057C27.968 -0.150686 28.9452 -0.150686 29.5479 0.452057C30.1507 1.0548 30.1507 2.032 29.5479 2.63511L2.63518 29.5472C2.33267 29.8478 1.93749 30 1.54268 30Z" fill="white"/>
<path d="M28.4577 30C28.0625 30 27.6677 29.8497 27.3671 29.5472L0.452068 2.63511C-0.150689 2.032 -0.150689 1.0548 0.452068 0.452057C1.05483 -0.150686 2.03205 -0.150686 2.63518 0.452057L29.5479 27.3645C30.1507 27.9672 30.1507 28.9444 29.5479 29.5472C29.2454 29.8478 28.8506 30 28.4577 30Z" fill="white"/>
</svg>
