<svg width="87" height="17" viewBox="0 0 87 17" fill="none" xmlns="http://www.w3.org/2000/svg">
<path d="M52.334 1.72881C52.334 0.774016 53.108 0 54.0628 0H84.7492C85.704 0 86.4781 0.774016 86.4781 1.72881V15.2712C86.4781 16.226 85.704 17 84.7492 17H54.0628C53.108 17 52.334 16.226 52.334 15.2712V1.72881Z" fill="white"/>
<path d="M0 12.2457V3.26018H5.41983V4.33637H1.25771V7.04628H4.95305V8.1095H1.25771V12.2457H0Z" fill="white"/>
<path d="M11.9252 12.0512C11.6486 12.1203 11.2812 12.1938 10.823 12.2716C10.3736 12.3494 9.85059 12.3883 9.25415 12.3883C8.73551 12.3883 8.29898 12.3148 7.94457 12.1679C7.59017 12.0123 7.30491 11.7962 7.08881 11.5196C6.87271 11.243 6.71712 10.9188 6.62203 10.5471C6.52695 10.1668 6.4794 9.74755 6.4794 9.28942V5.50331H7.68525V9.03009C7.68525 9.85128 7.81491 10.4391 8.07423 10.7935C8.33356 11.1479 8.77008 11.3251 9.38381 11.3251C9.51347 11.3251 9.64746 11.3208 9.78576 11.3121C9.92407 11.3035 10.0537 11.2948 10.1747 11.2862C10.2958 11.2689 10.4038 11.2559 10.4989 11.2473C10.6026 11.23 10.6761 11.2127 10.7193 11.1954V5.50331H11.9252V12.0512Z" fill="white"/>
<path d="M14.0026 5.69781C14.2792 5.62865 14.6466 5.55518 15.1047 5.47738C15.5628 5.39959 16.0901 5.36069 16.6866 5.36069C17.2225 5.36069 17.6677 5.43848 18.0221 5.59408C18.3765 5.74103 18.6574 5.95281 18.8649 6.22942C19.081 6.49738 19.2322 6.82154 19.3187 7.20187C19.4051 7.58221 19.4483 8.00145 19.4483 8.45959V12.2457H18.2425V8.71891C18.2425 8.30399 18.2122 7.94959 18.1517 7.65569C18.0999 7.36179 18.0091 7.12408 17.8794 6.94255C17.7498 6.76103 17.5769 6.63137 17.3608 6.55357C17.1447 6.46713 16.8767 6.42391 16.5569 6.42391C16.4272 6.42391 16.2933 6.42823 16.155 6.43687C16.0166 6.44552 15.8827 6.45848 15.753 6.47577C15.632 6.48442 15.5196 6.49738 15.4159 6.51467C15.3208 6.53196 15.2516 6.54492 15.2084 6.55357V12.2457H14.0026V5.69781Z" fill="white"/>
<path d="M24.3783 12.4013C23.8337 12.4013 23.354 12.3148 22.9391 12.142C22.5328 11.9691 22.187 11.727 21.9018 11.4159C21.6252 11.1047 21.4177 10.7373 21.2794 10.3137C21.1411 9.88154 21.0719 9.40611 21.0719 8.88747C21.0719 8.36882 21.1454 7.8934 21.2924 7.4612C21.448 7.02899 21.6641 6.6573 21.9407 6.34611C22.2173 6.02628 22.5544 5.77993 22.952 5.60704C23.3583 5.42552 23.8078 5.33476 24.3005 5.33476C24.603 5.33476 24.9056 5.36069 25.2081 5.41255C25.5107 5.46442 25.8002 5.54654 26.0769 5.65891L25.8046 6.68323C25.623 6.59679 25.4113 6.52764 25.1692 6.47577C24.9358 6.42391 24.6852 6.39798 24.4172 6.39798C23.743 6.39798 23.2243 6.60976 22.8613 7.03331C22.5069 7.45687 22.3297 8.07492 22.3297 8.88747C22.3297 9.25052 22.3686 9.58331 22.4463 9.88586C22.5328 10.1884 22.6624 10.4477 22.8353 10.6638C23.0169 10.8799 23.2459 11.0485 23.5225 11.1695C23.7991 11.2819 24.1363 11.3381 24.5339 11.3381C24.8537 11.3381 25.1433 11.3078 25.4026 11.2473C25.6619 11.1868 25.8651 11.122 26.012 11.0528L26.1806 12.0642C26.1114 12.1074 26.012 12.1506 25.8824 12.1938C25.7527 12.2284 25.6058 12.2587 25.4415 12.2846C25.2773 12.3192 25.1001 12.3451 24.9099 12.3624C24.7284 12.3883 24.5512 12.4013 24.3783 12.4013Z" fill="white"/>
<path d="M28.6032 5.50331H31.1575V6.51467H28.6032V9.62653C28.6032 9.96365 28.6292 10.2446 28.681 10.4693C28.7329 10.6854 28.8107 10.8583 28.9144 10.988C29.0181 11.109 29.1478 11.1954 29.3034 11.2473C29.459 11.2992 29.6405 11.3251 29.848 11.3251C30.211 11.3251 30.5006 11.2862 30.7167 11.2084C30.9414 11.122 31.097 11.0615 31.1835 11.0269L31.4169 12.0253C31.2958 12.0858 31.0841 12.1592 30.7815 12.2457C30.479 12.3408 30.1332 12.3883 29.7442 12.3883C29.2861 12.3883 28.9058 12.3321 28.6032 12.2198C28.3093 12.0987 28.0716 11.9215 27.8901 11.6881C27.7086 11.4548 27.5789 11.1695 27.5011 10.8324C27.4319 10.4866 27.3974 10.089 27.3974 9.6395V3.62323L28.6032 3.41577V5.50331Z" fill="white"/>
<path d="M33.8978 12.2457H32.692V5.50331H33.8978V12.2457ZM33.2884 4.2845C33.0723 4.2845 32.8865 4.21535 32.7309 4.07704C32.5839 3.93009 32.5105 3.7356 32.5105 3.49357C32.5105 3.25154 32.5839 3.06137 32.7309 2.92306C32.8865 2.77611 33.0723 2.70264 33.2884 2.70264C33.5045 2.70264 33.6861 2.77611 33.833 2.92306C33.9886 3.06137 34.0664 3.25154 34.0664 3.49357C34.0664 3.7356 33.9886 3.93009 33.833 4.07704C33.6861 4.21535 33.5045 4.2845 33.2884 4.2845Z" fill="white"/>
<path d="M41.923 8.8745C41.923 9.41043 41.8452 9.8945 41.6896 10.3267C41.534 10.7589 41.3135 11.1306 41.0283 11.4418C40.7517 11.753 40.4189 11.995 40.0299 12.1679C39.6409 12.3321 39.2174 12.4142 38.7592 12.4142C38.3011 12.4142 37.8775 12.3321 37.4885 12.1679C37.0996 11.995 36.7624 11.753 36.4772 11.4418C36.2006 11.1306 35.9845 10.7589 35.8289 10.3267C35.6733 9.8945 35.5955 9.41043 35.5955 8.8745C35.5955 8.34721 35.6733 7.86747 35.8289 7.43526C35.9845 6.99442 36.2006 6.6184 36.4772 6.30721C36.7624 5.99603 37.0996 5.75831 37.4885 5.59408C37.8775 5.4212 38.3011 5.33476 38.7592 5.33476C39.2174 5.33476 39.6409 5.4212 40.0299 5.59408C40.4189 5.75831 40.7517 5.99603 41.0283 6.30721C41.3135 6.6184 41.534 6.99442 41.6896 7.43526C41.8452 7.86747 41.923 8.34721 41.923 8.8745ZM40.6652 8.8745C40.6652 8.11382 40.4924 7.51306 40.1466 7.07221C39.8095 6.62272 39.347 6.39798 38.7592 6.39798C38.1714 6.39798 37.7046 6.62272 37.3589 7.07221C37.0218 7.51306 36.8532 8.11382 36.8532 8.8745C36.8532 9.63518 37.0218 10.2403 37.3589 10.6898C37.7046 11.1306 38.1714 11.351 38.7592 11.351C39.347 11.351 39.8095 11.1306 40.1466 10.6898C40.4924 10.2403 40.6652 9.63518 40.6652 8.8745Z" fill="white"/>
<path d="M43.6195 5.69781C43.8961 5.62865 44.2635 5.55518 44.7216 5.47738C45.1797 5.39959 45.707 5.36069 46.3035 5.36069C46.8394 5.36069 47.2846 5.43848 47.639 5.59408C47.9934 5.74103 48.2743 5.95281 48.4818 6.22942C48.6979 6.49738 48.8491 6.82154 48.9356 7.20187C49.022 7.58221 49.0653 8.00145 49.0653 8.45959V12.2457H47.8594V8.71891C47.8594 8.30399 47.8291 7.94959 47.7686 7.65569C47.7168 7.36179 47.626 7.12408 47.4963 6.94255C47.3667 6.76103 47.1938 6.63137 46.9777 6.55357C46.7616 6.46713 46.4936 6.42391 46.1738 6.42391C46.0441 6.42391 45.9102 6.42823 45.7719 6.43687C45.6336 6.44552 45.4996 6.45848 45.3699 6.47577C45.2489 6.48442 45.1365 6.49738 45.0328 6.51467C44.9377 6.53196 44.8685 6.54492 44.8253 6.55357V12.2457H43.6195V5.69781Z" fill="white"/>
<path d="M61.5471 7.74673C61.5471 8.52469 61.4261 9.20325 61.1841 9.7824C60.9421 10.3529 60.6006 10.8283 60.1598 11.2087C59.7189 11.5804 59.1916 11.8613 58.5779 12.0515C57.9642 12.233 57.2899 12.3238 56.5552 12.3238C56.1921 12.3238 55.7902 12.3065 55.3493 12.2719C54.9171 12.246 54.5238 12.1898 54.1694 12.1033V3.39012C54.5238 3.30368 54.9171 3.24749 55.3493 3.22156C55.7902 3.18698 56.1921 3.16969 56.5552 3.16969C57.2899 3.16969 57.9642 3.26478 58.5779 3.45495C59.1916 3.63647 59.7189 3.9174 60.1598 4.29774C60.6006 4.66944 60.9421 5.14486 61.1841 5.72401C61.4261 6.29452 61.5471 6.96876 61.5471 7.74673ZM56.6589 11.2216C57.8518 11.2216 58.7421 10.9191 59.3299 10.314C59.9177 9.70029 60.2116 8.84452 60.2116 7.74673C60.2116 6.64893 59.9177 5.79749 59.3299 5.1924C58.7421 4.57868 57.8518 4.27181 56.6589 4.27181C56.3045 4.27181 56.0279 4.27613 55.8291 4.28478C55.6389 4.29342 55.5049 4.30207 55.4271 4.31071V11.1827C55.5049 11.1914 55.6389 11.2 55.8291 11.2087C56.0279 11.2173 56.3045 11.2216 56.6589 11.2216Z" fill="url(#paint0_linear)"/>
<path d="M62.959 8.88774C62.959 8.2913 63.0455 7.77266 63.2184 7.33181C63.3912 6.88232 63.6203 6.51062 63.9056 6.21673C64.1908 5.92283 64.5193 5.7024 64.891 5.55546C65.2627 5.40851 65.643 5.33503 66.032 5.33503C66.9396 5.33503 67.6355 5.62029 68.1195 6.19079C68.6036 6.75266 68.8456 7.61274 68.8456 8.77105C68.8456 8.82291 68.8456 8.89207 68.8456 8.97851C68.8456 9.0563 68.8413 9.12978 68.8327 9.19893H64.2167C64.2686 9.8991 64.4717 10.4307 64.8261 10.7938C65.1806 11.1568 65.7338 11.3383 66.4858 11.3383C66.9094 11.3383 67.2638 11.3038 67.549 11.2346C67.8429 11.1568 68.0634 11.0833 68.2103 11.0142L68.3789 12.0255C68.2319 12.1033 67.9726 12.1855 67.6009 12.2719C67.2378 12.3583 66.8229 12.4016 66.3561 12.4016C65.7684 12.4016 65.2584 12.3151 64.8261 12.1422C64.4026 11.9607 64.0525 11.7144 63.7759 11.4032C63.4993 11.092 63.2918 10.7246 63.1535 10.301C63.0239 9.86885 62.959 9.39774 62.959 8.88774ZM67.5879 8.22647C67.5966 7.6819 67.4583 7.23673 67.173 6.89096C66.8964 6.53656 66.5117 6.35935 66.019 6.35935C65.7424 6.35935 65.4961 6.41554 65.28 6.52791C65.0725 6.63164 64.8953 6.76995 64.7484 6.94283C64.6014 7.11571 64.4847 7.31452 64.3983 7.53927C64.3205 7.76401 64.2686 7.99308 64.2427 8.22647H67.5879Z" fill="url(#paint1_linear)"/>
<path d="M75.8421 5.50359C75.5049 6.76562 75.1073 7.97579 74.6492 9.1341C74.1997 10.2924 73.7632 11.3297 73.3396 12.246H72.2505C71.8269 11.3297 71.3861 10.2924 70.9279 9.1341C70.4784 7.97579 70.0851 6.76562 69.748 5.50359H71.0446C71.1483 5.92715 71.2694 6.38096 71.4077 6.86503C71.5546 7.34046 71.7059 7.81588 71.8615 8.2913C72.0257 8.75808 72.1899 9.2119 72.3542 9.65274C72.5184 10.0936 72.674 10.4869 72.821 10.8327C72.9679 10.4869 73.1235 10.0936 73.2877 9.65274C73.452 9.2119 73.6119 8.75808 73.7675 8.2913C73.9317 7.81588 74.083 7.34046 74.2213 6.86503C74.3683 6.38096 74.4936 5.92715 74.5973 5.50359H75.8421Z" fill="url(#paint2_linear)"/>
<path d="M78.2661 8.3691C78.2661 9.47554 78.426 10.4999 78.7459 11.4421C79.0657 12.3843 79.5368 13.2573 80.1592 14.0612L79.3034 14.6447C78.6292 13.8235 78.0846 12.8813 77.6697 11.8181C77.2634 10.7462 77.0603 9.59656 77.0603 8.3691C77.0603 7.14164 77.2634 5.9963 77.6697 4.93308C78.0846 3.86122 78.6292 2.91469 79.3034 2.09351L80.1592 2.67698C79.5368 3.48088 79.0657 4.35393 78.7459 5.29613C78.426 6.23834 78.2661 7.26266 78.2661 8.3691Z" fill="url(#paint3_linear)"/>
<path d="M83.2749 8.3691C83.2749 7.26266 83.115 6.23834 82.7951 5.29613C82.4753 4.35393 82.0042 3.48088 81.3818 2.67698L82.2376 2.09351C82.9118 2.91469 83.4521 3.86122 83.8584 4.93308C84.2733 5.9963 84.4807 7.14164 84.4807 8.3691C84.4807 9.59656 84.2733 10.7462 83.8584 11.8181C83.4521 12.8813 82.9118 13.8235 82.2376 14.6447L81.3818 14.0612C82.0042 13.2573 82.4753 12.3843 82.7951 11.4421C83.115 10.4999 83.2749 9.47554 83.2749 8.3691Z" fill="url(#paint4_linear)"/>
<defs>
<linearGradient id="paint0_linear" x1="77.4755" y1="13.8463" x2="73.1985" y2="-2.40776" gradientUnits="userSpaceOnUse">
<stop stop-color="#85B5FF"/>
<stop offset="1" stop-color="#009FFF"/>
</linearGradient>
<linearGradient id="paint1_linear" x1="77.4755" y1="13.8463" x2="73.1985" y2="-2.40776" gradientUnits="userSpaceOnUse">
<stop stop-color="#85B5FF"/>
<stop offset="1" stop-color="#009FFF"/>
</linearGradient>
<linearGradient id="paint2_linear" x1="77.4755" y1="13.8463" x2="73.1985" y2="-2.40776" gradientUnits="userSpaceOnUse">
<stop stop-color="#85B5FF"/>
<stop offset="1" stop-color="#009FFF"/>
</linearGradient>
<linearGradient id="paint3_linear" x1="77.4755" y1="13.8463" x2="73.1985" y2="-2.40776" gradientUnits="userSpaceOnUse">
<stop stop-color="#85B5FF"/>
<stop offset="1" stop-color="#009FFF"/>
</linearGradient>
<linearGradient id="paint4_linear" x1="77.4755" y1="13.8463" x2="73.1985" y2="-2.40776" gradientUnits="userSpaceOnUse">
<stop stop-color="#85B5FF"/>
<stop offset="1" stop-color="#009FFF"/>
</linearGradient>
</defs>
</svg>
