<svg width="40" height="40" viewBox="0 0 40 40" fill="none" xmlns="http://www.w3.org/2000/svg">
<rect width="40" height="40" rx="10" fill="#1EBFFF"/>
<g clip-path="url(#clip0)">
<path d="M33.6869 13.9463C33.6213 12.4586 33.3807 11.4357 33.0361 10.5495C32.6805 9.6087 32.1336 8.76643 31.4169 8.06626C30.7167 7.35518 29.8689 6.80264 28.9391 6.45266C28.0476 6.10802 27.0302 5.86743 25.5424 5.80184C24.0436 5.73069 23.5677 5.71423 19.7662 5.71423C15.9647 5.71423 15.4889 5.73069 13.9956 5.79628C12.5078 5.86188 11.485 6.10268 10.5989 6.4471C9.65795 6.80264 8.81569 7.34962 8.11551 8.06626C7.40443 8.76643 6.85211 9.61426 6.50191 10.5441C6.15727 11.4357 5.91669 12.453 5.85109 13.9408C5.77994 15.4396 5.76349 15.9154 5.76349 19.717C5.76349 23.5185 5.77994 23.9943 5.84554 25.4876C5.91113 26.9754 6.15193 27.9982 6.49657 28.8845C6.85211 29.8252 7.40443 30.6675 8.11551 31.3677C8.81569 32.0788 9.66351 32.6313 10.5934 32.9813C11.485 33.3259 12.5023 33.5665 13.9902 33.6321C15.4833 33.6979 15.9594 33.7141 19.7609 33.7141C23.5624 33.7141 24.0382 33.6979 25.5315 33.6321C27.0193 33.5665 28.0421 33.3259 28.9282 32.9813C30.8099 32.2537 32.2976 30.766 33.0252 28.8845C33.3696 27.9928 33.6104 26.9754 33.676 25.4876C33.7416 23.9943 33.758 23.5185 33.758 19.717C33.758 15.9154 33.7525 15.4396 33.6869 13.9463ZM31.1654 25.3782C31.1052 26.7457 30.8755 27.4841 30.6841 27.9764C30.2136 29.1962 29.2454 30.1643 28.0256 30.6348C27.5334 30.8263 26.7896 31.0559 25.4275 31.116C23.9506 31.1818 23.5077 31.198 19.7718 31.198C16.0358 31.198 15.5874 31.1818 14.1159 31.116C12.7484 31.0559 12.01 30.8263 11.5177 30.6348C10.9107 30.4105 10.3581 30.0549 9.90965 29.59C9.44472 29.136 9.08918 28.589 8.86483 27.9819C8.67339 27.4897 8.4437 26.7457 8.38366 25.3838C8.31785 23.9069 8.30161 23.4638 8.30161 19.7279C8.30161 15.9919 8.31785 15.5435 8.38366 14.0722C8.4437 12.7047 8.67339 11.9663 8.86483 11.474C9.08918 10.8668 9.44472 10.3144 9.91521 9.86574C10.369 9.40081 10.916 9.04527 11.5232 8.82113C12.0155 8.62969 12.7595 8.4 14.1214 8.33975C15.5983 8.27415 16.0414 8.2577 19.7771 8.2577C23.5186 8.2577 23.9615 8.27415 25.433 8.33975C26.8005 8.4 27.5389 8.62969 28.0312 8.82113C28.6382 9.04527 29.1908 9.40081 29.6392 9.86574C30.1042 10.3198 30.4597 10.8668 30.6841 11.474C30.8755 11.9663 31.1052 12.71 31.1654 14.0722C31.231 15.549 31.2475 15.9919 31.2475 19.7279C31.2475 23.4638 31.231 23.9014 31.1654 25.3782Z" fill="white"/>
<path d="M19.7662 12.5242C15.7952 12.5242 12.5734 15.7458 12.5734 19.717C12.5734 23.6882 15.7952 26.9098 19.7662 26.9098C23.7374 26.9098 26.959 23.6882 26.959 19.717C26.959 15.7458 23.7374 12.5242 19.7662 12.5242ZM19.7662 24.3828C17.1901 24.3828 15.1004 22.2934 15.1004 19.717C15.1004 17.1406 17.1901 15.0512 19.7662 15.0512C22.3426 15.0512 24.432 17.1406 24.432 19.717C24.432 22.2934 22.3426 24.3828 19.7662 24.3828Z" fill="white"/>
<path d="M28.9228 12.2397C28.9228 13.167 28.1709 13.9189 27.2434 13.9189C26.3161 13.9189 25.5642 13.167 25.5642 12.2397C25.5642 11.3122 26.3161 10.5605 27.2434 10.5605C28.1709 10.5605 28.9228 11.3122 28.9228 12.2397Z" fill="white"/>
</g>
<defs>
<clipPath id="clip0">
<rect x="5.71429" y="5.71423" width="28" height="28" fill="white"/>
</clipPath>
</defs>
</svg>
