<svg width="49" height="49" viewBox="0 0 49 49" fill="none" xmlns="http://www.w3.org/2000/svg">
<rect x="0.767639" y="0.727112" width="48" height="48" rx="2" fill="#1A1A1A"/>
<path d="M34.7454 22.7342L26.0078 13.9569C25.3503 13.2971 24.187 13.2971 23.5273 13.9569L14.7896 22.7342C14.1089 23.4196 14.1112 24.5269 14.7966 25.2077C15.482 25.8884 16.587 25.8884 17.2701 25.203L23.0214 19.4284V34.2437C23.0214 35.2112 23.8047 35.9922 24.7698 35.9922C25.735 35.9922 26.5183 35.2112 26.5183 34.2437V19.4284L32.2673 25.203C32.61 25.5457 33.0576 25.7159 33.5075 25.7159C33.9528 25.7159 34.4004 25.5457 34.7408 25.2077C35.4238 24.5269 35.4262 23.4196 34.7454 22.7342Z" fill="white"/>
</svg>
