<svg width="49" height="49" viewBox="0 0 49 49" fill="none" xmlns="http://www.w3.org/2000/svg">
<rect x="0.277466" y="0.727112" width="48" height="48" rx="2" fill="#1EBFFF"/>
<path d="M34.2552 22.7342L25.5176 13.9569C24.8602 13.2971 23.6968 13.2971 23.0371 13.9569L14.2994 22.7342C13.6187 23.4196 13.621 24.5269 14.3064 25.2077C14.9918 25.8884 16.0968 25.8884 16.7799 25.203L22.5312 19.4284V34.2437C22.5312 35.2112 23.3145 35.9922 24.2797 35.9922C25.2448 35.9922 26.0281 35.2112 26.0281 34.2437V19.4284L31.7771 25.203C32.1198 25.5457 32.5674 25.7159 33.0173 25.7159C33.4626 25.7159 33.9102 25.5457 34.2506 25.2077C34.9336 24.5269 34.936 23.4196 34.2552 22.7342Z" fill="white"/>
</svg>
