<svg width="40" height="40" viewBox="0 0 40 40" fill="none" xmlns="http://www.w3.org/2000/svg">
<rect width="40" height="40" rx="10" fill="#1EBFFF"/>
<g clip-path="url(#clip0)">
<path d="M33.5659 26.1541C33.532 26.081 33.5003 26.0204 33.471 25.9719C32.9852 25.0969 32.0568 24.023 30.6865 22.7498L30.6575 22.7206L30.643 22.7063L30.6284 22.6917H30.6137C29.9918 22.0988 29.5979 21.7002 29.433 21.4961C29.1312 21.1073 29.0636 20.7137 29.2285 20.315C29.3451 20.0137 29.7828 19.3775 30.5406 18.4055C30.9393 17.8903 31.255 17.4774 31.4881 17.1664C33.1696 14.9309 33.8986 13.5024 33.675 12.8803L33.5881 12.7349C33.5298 12.6474 33.3791 12.5673 33.1364 12.4943C32.8932 12.4215 32.5823 12.4094 32.2031 12.458L28.0046 12.487C27.9366 12.4629 27.8395 12.4651 27.713 12.4943C27.5866 12.5235 27.5234 12.5382 27.5234 12.5382L27.4503 12.5747L27.3923 12.6186C27.3437 12.6476 27.2902 12.6986 27.2319 12.7715C27.1738 12.8441 27.1253 12.9294 27.0865 13.0266C26.6294 14.2026 26.1097 15.296 25.5264 16.3067C25.1667 16.9094 24.8365 17.4317 24.5349 17.8739C24.2337 18.316 23.9809 18.6417 23.777 18.8505C23.5728 19.0595 23.3884 19.2269 23.2229 19.3534C23.0576 19.4799 22.9314 19.5334 22.8441 19.5139C22.7565 19.4943 22.674 19.4749 22.596 19.4555C22.46 19.368 22.3506 19.2489 22.2681 19.0983C22.1853 18.9477 22.1296 18.7581 22.1004 18.5297C22.0714 18.3011 22.0542 18.1046 22.0493 17.9393C22.0448 17.7742 22.0469 17.5407 22.0567 17.2394C22.0669 16.938 22.0714 16.7341 22.0714 16.6271C22.0714 16.2578 22.0786 15.8569 22.0931 15.4244C22.1078 14.9919 22.1196 14.6492 22.1296 14.3968C22.1395 14.1441 22.1441 13.8767 22.1441 13.5949C22.1441 13.313 22.127 13.0919 22.0931 12.9315C22.0596 12.7713 22.0081 12.6157 21.9404 12.465C21.8722 12.3143 21.7724 12.1978 21.6415 12.1151C21.5103 12.0325 21.3472 11.9669 21.1532 11.9182C20.638 11.8016 19.982 11.7386 19.1849 11.7288C17.3773 11.7094 16.2158 11.8261 15.7007 12.0788C15.4966 12.1856 15.3119 12.3314 15.1467 12.516C14.9718 12.7299 14.9473 12.8466 15.0737 12.8658C15.6569 12.9532 16.0698 13.1622 16.3128 13.4926L16.4004 13.6677C16.4685 13.794 16.5365 14.0176 16.6045 14.3383C16.6725 14.659 16.7164 15.0137 16.7357 15.4023C16.7842 16.1119 16.7842 16.7193 16.7357 17.2246C16.687 17.7301 16.6411 18.1237 16.5972 18.4055C16.5533 18.6874 16.4878 18.9158 16.4004 19.0907C16.3128 19.2656 16.2545 19.3725 16.2253 19.4113C16.1962 19.4501 16.1719 19.4746 16.1525 19.4842C16.0262 19.5326 15.8948 19.5573 15.7589 19.5573C15.6227 19.5573 15.4576 19.4891 15.2632 19.353C15.0689 19.2169 14.8673 19.0299 14.6583 18.7917C14.4493 18.5535 14.2136 18.2207 13.9511 17.7931C13.6888 17.3655 13.4166 16.8601 13.1348 16.277L12.9016 15.8541C12.7558 15.5821 12.5566 15.1859 12.3039 14.6661C12.0511 14.146 11.8276 13.643 11.6333 13.157C11.5556 12.9529 11.439 12.7975 11.2835 12.6906L11.2105 12.6467C11.162 12.6079 11.0841 12.5667 10.9773 12.5228C10.8703 12.479 10.7587 12.4475 10.642 12.4281L6.6475 12.4572C6.23931 12.4572 5.96235 12.5496 5.81652 12.7343L5.75816 12.8217C5.729 12.8703 5.71429 12.9481 5.71429 13.055C5.71429 13.162 5.74345 13.2932 5.80181 13.4486C6.38494 14.8191 7.01907 16.1408 7.70421 17.4139C8.38936 18.6871 8.98473 19.7127 9.48999 20.4897C9.99534 21.2674 10.5105 22.0013 11.0353 22.6911C11.5602 23.3812 11.9076 23.8234 12.0776 24.0177C12.2478 24.2124 12.3815 24.3579 12.4786 24.4551L12.8431 24.8049C13.0764 25.0382 13.4189 25.3176 13.8709 25.6431C14.3229 25.9688 14.8234 26.2895 15.3725 26.6056C15.9217 26.9212 16.5606 27.1788 17.2896 27.378C18.0185 27.5774 18.728 27.6574 19.4181 27.6188H21.0946C21.4347 27.5894 21.6923 27.4825 21.8674 27.298L21.9254 27.2249C21.9644 27.1669 22.0009 27.0768 22.0346 26.9555C22.0687 26.834 22.0856 26.7002 22.0856 26.5546C22.0757 26.1368 22.1075 25.7602 22.1802 25.4249C22.2529 25.0898 22.3357 24.8371 22.4283 24.6669C22.5209 24.4968 22.6254 24.3534 22.7416 24.237C22.8582 24.1205 22.9412 24.0499 22.9899 24.0255C23.0383 24.0011 23.077 23.9845 23.1061 23.9745C23.3394 23.8968 23.6139 23.9721 23.93 24.2007C24.246 24.4291 24.5423 24.7111 24.8194 25.0463C25.0964 25.3817 25.4293 25.7581 25.8179 26.176C26.2069 26.5939 26.5469 26.9047 26.8384 27.1091L27.1299 27.284C27.3245 27.4007 27.5772 27.5076 27.8883 27.6048C28.1988 27.7019 28.4708 27.7262 28.7044 27.6777L32.4364 27.6195C32.8055 27.6195 33.0927 27.5583 33.2965 27.4371C33.5006 27.3156 33.6219 27.1818 33.661 27.0362C33.7 26.8905 33.7021 26.7251 33.6684 26.5403C33.6338 26.3559 33.5998 26.227 33.5659 26.1541Z" fill="white"/>
</g>
<defs>
<clipPath id="clip0">
<rect width="28" height="28" fill="white" transform="translate(5.71429 5.71423)"/>
</clipPath>
</defs>
</svg>
