<svg width="40" height="40" viewBox="0 0 40 40" fill="none" xmlns="http://www.w3.org/2000/svg">
<rect width="40" height="40" rx="10" fill="#1A1A1A"/>
<path d="M32.2847 13.1531C31.9822 12.0286 31.0956 11.1421 29.9712 10.8393C27.917 10.2772 19.7003 10.2772 19.7003 10.2772C19.7003 10.2772 11.4839 10.2772 9.42973 10.818C8.32696 11.1204 7.41869 12.0287 7.1162 13.1531C6.57562 15.2071 6.57562 19.4668 6.57562 19.4668C6.57562 19.4668 6.57562 23.748 7.1162 25.7805C7.41901 26.9049 8.30533 27.7914 9.42989 28.0942C11.5055 28.6564 19.7006 28.6564 19.7006 28.6564C19.7006 28.6564 27.917 28.6564 29.9712 28.1157C31.0958 27.813 31.9822 26.9265 32.285 25.8021C32.8255 23.748 32.8255 19.4884 32.8255 19.4884C32.8255 19.4884 32.8471 15.2071 32.2847 13.1531ZM17.0843 23.4021V15.5315L23.9169 19.4668L17.0843 23.4021Z" fill="white"/>
</svg>
